<svg width="1440" height="760" viewBox="0 0 1440 760" fill="none" xmlns="http://www.w3.org/2000/svg">
<g clip-path="url(#clip0_376_1212)">
<path d="M1440 0H0V760H1440V0Z" fill="#E8FDFE"/>
<path d="M0.00012207 661.037C90.9271 661.353 163.692 571.779 246.195 519.905C343.913 458.466 479.749 457.808 529.451 328.146C578.863 199.241 519.065 42.1149 481.499 -93.9536C449.913 -208.363 382.089 -288.723 331.297 -389.596C272.343 -506.681 252.916 -672.603 158.932 -734.582C63.1691 -797.735 -59.0099 -775.984 -153.457 -709.278C-242.552 -646.351 -281.073 -507.373 -330.631 -388.813C-371.294 -291.533 -404.343 -191.892 -416.003 -81.1734C-427.655 29.4704 -427.201 142.123 -397.523 246.38C-366.686 354.708 -313.231 447.422 -245.385 518.192C-173.36 593.323 -90.8419 660.721 0.00012207 661.037Z" fill="#D0F8FA"/>
</g>
<defs>
<clipPath id="clip0_376_1212">
<rect width="1440" height="760" fill="white"/>
</clipPath>
</defs>
</svg>
