<svg width="1435" height="738" viewBox="0 0 1435 738" fill="none" xmlns="http://www.w3.org/2000/svg">
<path d="M1440 0H0V738H1440V0Z" fill="#E8FDFE"/>
<path d="M1440 1486.32C1543.86 1464.57 1587.62 1296.74 1678.77 1227.64C1777.24 1152.99 1924.57 1191.31 1990.26 1069.17C2055.54 947.802 2017.4 778.864 1999.11 632.06C1981.14 487.764 1967.62 327.654 1885.63 229.121C1805.44 132.753 1681.66 160.798 1576.71 124.414C1475.55 89.3428 1381.56 -12.944 1279.82 19.0971C1177.26 51.3991 1116.88 185.131 1048.38 290.804C980.375 395.734 889.695 494.679 882.357 632.338C875.095 768.572 964.93 873.849 1010.78 996.325C1054.96 1114.35 1071.42 1252.86 1146.9 1339.03C1227.57 1431.12 1334.6 1508.4 1440 1486.32Z" fill="#D0F8FA"/>
</svg>
